<svg width="1108" height="488" viewBox="0 0 1108 488" fill="none" xmlns="http://www.w3.org/2000/svg">
<g filter="url(#filter0_d_214_13)">
<rect x="14" y="10" width="1080" height="460" rx="220" fill="black"/>
<rect x="9" y="5" width="1090" height="470" rx="225" stroke="#454343" stroke-width="10"/>
</g>
<path d="M253.045 353.196C236.284 353.196 221.866 349.645 209.793 342.543C197.79 335.369 188.557 325.426 182.094 312.713C175.702 300 172.506 285.369 172.506 268.821C172.506 252.06 175.737 237.358 182.2 224.716C188.734 212.003 198.003 202.095 210.006 194.993C222.009 187.82 236.284 184.233 252.832 184.233C267.108 184.233 279.608 186.825 290.332 192.01C301.057 197.195 309.544 204.474 315.794 213.849C322.044 223.224 325.489 234.233 326.128 246.875H283.301C282.094 238.707 278.898 232.138 273.713 227.166C268.599 222.124 261.888 219.602 253.578 219.602C246.547 219.602 240.403 221.52 235.148 225.355C229.963 229.119 225.915 234.624 223.003 241.868C220.091 249.112 218.635 257.884 218.635 268.182C218.635 278.622 220.055 287.5 222.896 294.815C225.808 302.131 229.892 307.706 235.148 311.541C240.403 315.376 246.547 317.294 253.578 317.294C258.763 317.294 263.415 316.229 267.534 314.098C271.724 311.967 275.169 308.878 277.868 304.83C280.638 300.71 282.449 295.774 283.301 290.021H326.128C325.418 302.521 322.009 313.53 315.901 323.047C309.864 332.493 301.518 339.879 290.865 345.206C280.212 350.533 267.605 353.196 253.045 353.196ZM400.569 131.818V350H355.185V131.818H400.569ZM510.858 353.196C494.31 353.196 479.999 349.68 467.925 342.649C455.922 335.547 446.653 325.675 440.119 313.033C433.585 300.32 430.318 285.582 430.318 268.821C430.318 251.918 433.585 237.145 440.119 224.503C446.653 211.79 455.922 201.918 467.925 194.886C479.999 187.784 494.31 184.233 510.858 184.233C527.406 184.233 541.682 187.784 553.685 194.886C565.759 201.918 575.062 211.79 581.597 224.503C588.131 237.145 591.398 251.918 591.398 268.821C591.398 285.582 588.131 300.32 581.597 313.033C575.062 325.675 565.759 335.547 553.685 342.649C541.682 349.68 527.406 353.196 510.858 353.196ZM511.071 318.04C518.599 318.04 524.885 315.909 529.928 311.648C534.97 307.315 538.77 301.42 541.327 293.963C543.955 286.506 545.268 278.018 545.268 268.501C545.268 258.984 543.955 250.497 541.327 243.04C538.77 235.582 534.97 229.687 529.928 225.355C524.885 221.023 518.599 218.857 511.071 218.857C503.472 218.857 497.08 221.023 491.895 225.355C486.781 229.687 482.911 235.582 480.283 243.04C477.726 250.497 476.447 258.984 476.447 268.501C476.447 278.018 477.726 286.506 480.283 293.963C482.911 301.42 486.781 307.315 491.895 311.648C497.08 315.909 503.472 318.04 511.071 318.04ZM666.291 255.398V350H620.908V186.364H664.161V215.234H666.078C669.7 205.717 675.773 198.189 684.295 192.649C692.818 187.038 703.152 184.233 715.297 184.233C726.661 184.233 736.568 186.719 745.02 191.69C753.472 196.662 760.041 203.764 764.729 212.997C769.416 222.159 771.76 233.097 771.76 245.81V350H726.376V253.906C726.447 243.892 723.891 236.08 718.706 230.469C713.521 224.787 706.384 221.946 697.293 221.946C691.185 221.946 685.787 223.26 681.099 225.888C676.483 228.516 672.861 232.351 670.233 237.393C667.676 242.365 666.362 248.366 666.291 255.398ZM882.103 353.196C865.27 353.196 850.782 349.787 838.637 342.969C826.563 336.08 817.259 326.349 810.725 313.778C804.191 301.136 800.924 286.186 800.924 268.928C800.924 252.095 804.191 237.322 810.725 224.609C817.259 211.896 826.456 201.989 838.317 194.886C850.249 187.784 864.24 184.233 880.292 184.233C891.087 184.233 901.137 185.973 910.441 189.453C919.816 192.862 927.983 198.011 934.944 204.901C941.975 211.79 947.444 220.455 951.35 230.895C955.256 241.264 957.209 253.409 957.209 267.33V279.794H819.034V251.669H914.489C914.489 245.135 913.069 239.347 910.228 234.304C907.387 229.261 903.445 225.32 898.402 222.479C893.431 219.567 887.642 218.111 881.037 218.111C874.148 218.111 868.04 219.709 862.713 222.905C857.458 226.03 853.338 230.256 850.355 235.582C847.373 240.838 845.846 246.697 845.775 253.161V279.901C845.775 287.997 847.266 294.993 850.249 300.888C853.303 306.783 857.6 311.328 863.14 314.524C868.679 317.72 875.249 319.318 882.848 319.318C887.891 319.318 892.507 318.608 896.698 317.188C900.888 315.767 904.475 313.636 907.458 310.795C910.441 307.955 912.713 304.474 914.276 300.355L956.25 303.125C954.12 313.21 949.752 322.017 943.147 329.545C936.613 337.003 928.161 342.827 917.792 347.017C907.493 351.136 895.597 353.196 882.103 353.196Z" fill="white"/>
<defs>
<filter id="filter0_d_214_13" x="0" y="0" width="1108" height="488" filterUnits="userSpaceOnUse" color-interpolation-filters="sRGB">
<feFlood flood-opacity="0" result="BackgroundImageFix"/>
<feColorMatrix in="SourceAlpha" type="matrix" values="0 0 0 0 0 0 0 0 0 0 0 0 0 0 0 0 0 0 127 0" result="hardAlpha"/>
<feOffset dy="4"/>
<feGaussianBlur stdDeviation="2"/>
<feComposite in2="hardAlpha" operator="out"/>
<feColorMatrix type="matrix" values="0 0 0 0 0 0 0 0 0 0 0 0 0 0 0 0 0 0 0.25 0"/>
<feBlend mode="normal" in2="BackgroundImageFix" result="effect1_dropShadow_214_13"/>
<feBlend mode="normal" in="SourceGraphic" in2="effect1_dropShadow_214_13" result="shape"/>
</filter>
</defs>
</svg>
