<svg width="1080" height="1080" viewBox="0 0 774 300" fill="none" xmlns="http://www.w3.org/2000/svg">
<g filter="url(#filter0_d_200_12)">
<rect x="14" y="10" width="746" height="271.794" rx="120" fill="black"/>
<rect x="9" y="5" width="756" height="281.794" rx="125" stroke="#454343" stroke-width="10"/>
</g>
<path d="M197.227 208.918C187.17 208.918 178.52 206.787 171.276 202.526C164.074 198.222 158.534 192.256 154.656 184.628C150.821 177 148.903 168.222 148.903 158.293C148.903 148.236 150.842 139.415 154.72 131.83C158.641 124.202 164.202 118.257 171.403 113.996C178.605 109.692 187.17 107.54 197.099 107.54C205.665 107.54 213.165 109.095 219.599 112.206C226.034 115.317 231.126 119.685 234.876 125.31C238.626 130.935 240.693 137.54 241.077 145.125H215.381C214.656 140.224 212.739 136.283 209.628 133.3C206.56 130.274 202.533 128.761 197.547 128.761C193.328 128.761 189.642 129.912 186.489 132.213C183.378 134.472 180.949 137.774 179.202 142.121C177.455 146.467 176.581 151.73 176.581 157.909C176.581 164.173 177.433 169.5 179.138 173.889C180.885 178.278 183.335 181.624 186.489 183.925C189.642 186.226 193.328 187.376 197.547 187.376C200.658 187.376 203.449 186.737 205.92 185.459C208.435 184.18 210.501 182.327 212.121 179.898C213.783 177.426 214.869 174.464 215.381 171.013H241.077C240.651 178.513 238.605 185.118 234.94 190.828C231.318 196.496 226.311 200.928 219.919 204.124C213.527 207.32 205.963 208.918 197.227 208.918ZM285.741 76.0909V207H258.511V76.0909H285.741ZM351.915 208.918C341.986 208.918 333.399 206.808 326.155 202.589C318.953 198.328 313.392 192.405 309.472 184.82C305.551 177.192 303.591 168.349 303.591 158.293C303.591 148.151 305.551 139.287 309.472 131.702C313.392 124.074 318.953 118.151 326.155 113.932C333.399 109.67 341.986 107.54 351.915 107.54C361.844 107.54 370.409 109.67 377.611 113.932C384.855 118.151 390.438 124.074 394.358 131.702C398.278 139.287 400.239 148.151 400.239 158.293C400.239 168.349 398.278 177.192 394.358 184.82C390.438 192.405 384.855 198.328 377.611 202.589C370.409 206.808 361.844 208.918 351.915 208.918ZM352.043 187.824C356.56 187.824 360.331 186.545 363.357 183.989C366.382 181.389 368.662 177.852 370.196 173.378C371.773 168.903 372.561 163.811 372.561 158.101C372.561 152.391 371.773 147.298 370.196 142.824C368.662 138.349 366.382 134.812 363.357 132.213C360.331 129.614 356.56 128.314 352.043 128.314C347.483 128.314 343.648 129.614 340.537 132.213C337.469 134.812 335.146 138.349 333.57 142.824C332.036 147.298 331.268 152.391 331.268 158.101C331.268 163.811 332.036 168.903 333.57 173.378C335.146 177.852 337.469 181.389 340.537 183.989C343.648 186.545 347.483 187.824 352.043 187.824ZM445.175 150.239V207H417.945V108.818H443.896V126.141H445.047C447.22 120.43 450.864 115.913 455.977 112.589C461.091 109.223 467.291 107.54 474.578 107.54C481.396 107.54 487.341 109.031 492.412 112.014C497.483 114.997 501.425 119.259 504.237 124.798C507.05 130.295 508.456 136.858 508.456 144.486V207H481.226V149.344C481.268 143.335 479.734 138.648 476.624 135.281C473.513 131.872 469.23 130.168 463.776 130.168C460.111 130.168 456.872 130.956 454.06 132.533C451.29 134.109 449.116 136.411 447.54 139.436C446.006 142.419 445.217 146.02 445.175 150.239ZM574.662 208.918C564.562 208.918 555.869 206.872 548.582 202.781C541.338 198.648 535.755 192.81 531.835 185.267C527.914 177.682 525.954 168.712 525.954 158.357C525.954 148.257 527.914 139.393 531.835 131.766C535.755 124.138 541.274 118.193 548.39 113.932C555.549 109.67 563.944 107.54 573.575 107.54C580.052 107.54 586.082 108.584 591.664 110.672C597.289 112.717 602.19 115.807 606.366 119.94C610.585 124.074 613.866 129.273 616.21 135.537C618.554 141.759 619.726 149.045 619.726 157.398V164.876H536.821V148.001H594.093C594.093 144.081 593.241 140.608 591.537 137.582C589.832 134.557 587.467 132.192 584.441 130.487C581.458 128.74 577.985 127.866 574.022 127.866C569.889 127.866 566.224 128.825 563.028 130.743C559.875 132.618 557.403 135.153 555.613 138.349C553.824 141.503 552.907 145.018 552.865 148.896V164.94C552.865 169.798 553.76 173.996 555.549 177.533C557.382 181.07 559.96 183.797 563.284 185.714C566.608 187.632 570.549 188.591 575.109 188.591C578.135 188.591 580.904 188.165 583.419 187.312C585.933 186.46 588.085 185.182 589.875 183.477C591.664 181.773 593.028 179.685 593.966 177.213L619.15 178.875C617.872 184.926 615.251 190.21 611.288 194.727C607.368 199.202 602.297 202.696 596.075 205.21C589.896 207.682 582.758 208.918 574.662 208.918Z" fill="white"/>
<defs>
<filter id="filter0_d_200_12" x="0" y="0" width="774" height="299.794" filterUnits="userSpaceOnUse" color-interpolation-filters="sRGB">
<feFlood flood-opacity="0" result="BackgroundImageFix"/>
<feColorMatrix in="SourceAlpha" type="matrix" values="0 0 0 0 0 0 0 0 0 0 0 0 0 0 0 0 0 0 127 0" result="hardAlpha"/>
<feOffset dy="4"/>
<feGaussianBlur stdDeviation="2"/>
<feComposite in2="hardAlpha" operator="out"/>
<feColorMatrix type="matrix" values="0 0 0 0 0 0 0 0 0 0 0 0 0 0 0 0 0 0 0.25 0"/>
<feBlend mode="normal" in2="BackgroundImageFix" result="effect1_dropShadow_200_12"/>
<feBlend mode="normal" in="SourceGraphic" in2="effect1_dropShadow_200_12" result="shape"/>
</filter>
</defs>
</svg>
